<svg xmlns="http://www.w3.org/2000/svg" viewBox="0 0 1024 1024" width="1024" height="1024" role="img" aria-label="Roomriv app icon"><title>Roomriv app icon</title><defs><linearGradient id="bg" x1="0" y1="0" x2="1" y2="1"><stop offset="0" stop-color="#16244A"/><stop offset="1" stop-color="#0B1324"/></linearGradient><linearGradient id="rr" x1="0" y1="0" x2="1" y2="1"><stop offset="0" stop-color="#3B82F6"/><stop offset="1" stop-color="#1D4ED8"/></linearGradient></defs><rect width="1024" height="1024" rx="225.28" fill="url(#bg)"/><g transform="translate(184.32 283.57) scale(4.57)"><path fill="url(#rr)" d="M74.5 0L112.2 0A31.25 31.25 0 0 1 109.46 62.38L144.82 100L127.81 100L80.9 50.1L112.2 50.1A18.85 18.85 0 0 0 112.2 12.4L83.8 12.4Z"/><path fill="#FFFFFF" d="M0 0L46.5 0A31.25 31.25 0 0 1 51.67 62.07L87.32 100L70.31 100L23.4 50.1L46.5 50.1A18.85 18.85 0 0 0 46.5 12.4L12.4 12.4L12.4 89.7L0 89.7Z"/></g></svg>
